<mxfile host="app.diagrams.net" modified="2023-05-31T05:41:42.943Z" agent="Mozilla/5.0 (Windows NT 10.0; Win64; x64) AppleWebKit/537.36 (KHTML, like Gecko) Chrome/113.0.0.0 Safari/537.36" etag="BL2frcRjkfz1kSvm1M7q" version="21.3.6" type="github">
  <diagram name="Page-1" id="XmNvGrhXyMhRQj3r0GB2">
    <mxGraphModel dx="30" dy="560" grid="1" gridSize="10" guides="1" tooltips="1" connect="1" arrows="1" fold="1" page="1" pageScale="1" pageWidth="850" pageHeight="1100" math="0" shadow="0">
      <root>
        <mxCell id="0" />
        <mxCell id="1" parent="0" />
        <mxCell id="Q-AXj50fh7RN7zTjwjfb-2" value="" style="rounded=0;whiteSpace=wrap;html=1;" vertex="1" parent="1">
          <mxGeometry x="910" y="280" width="690" height="160" as="geometry" />
        </mxCell>
        <mxCell id="gzXm-2DNW7AxcOASxkk4-2" value="&lt;font style=&quot;font-size: 10px;&quot;&gt;Pembayaran&lt;/font&gt;" style="ellipse;whiteSpace=wrap;html=1;" parent="1" vertex="1">
          <mxGeometry x="1290" y="340" width="120" height="40" as="geometry" />
        </mxCell>
        <mxCell id="gzXm-2DNW7AxcOASxkk4-3" value="" style="edgeStyle=orthogonalEdgeStyle;rounded=0;orthogonalLoop=1;jettySize=auto;html=1;dashed=1;" parent="1" source="gzXm-2DNW7AxcOASxkk4-4" target="gzXm-2DNW7AxcOASxkk4-6" edge="1">
          <mxGeometry relative="1" as="geometry" />
        </mxCell>
        <mxCell id="gzXm-2DNW7AxcOASxkk4-4" value="&lt;font style=&quot;font-size: 10px;&quot;&gt;Pemesanan&lt;/font&gt;" style="ellipse;whiteSpace=wrap;html=1;" parent="1" vertex="1">
          <mxGeometry x="920" y="340" width="120" height="40" as="geometry" />
        </mxCell>
        <mxCell id="gzXm-2DNW7AxcOASxkk4-6" value="&lt;font style=&quot;font-size: 10px;&quot;&gt;Kelola CRUD Pemesanan&lt;/font&gt;" style="ellipse;whiteSpace=wrap;html=1;" parent="1" vertex="1">
          <mxGeometry x="1100" y="340" width="120" height="40" as="geometry" />
        </mxCell>
        <mxCell id="gzXm-2DNW7AxcOASxkk4-7" value="&lt;font style=&quot;font-size: 10px;&quot;&gt;Cek Pembayaran&lt;/font&gt;" style="ellipse;whiteSpace=wrap;html=1;" parent="1" vertex="1">
          <mxGeometry x="1470" y="300" width="120" height="40" as="geometry" />
        </mxCell>
        <mxCell id="gzXm-2DNW7AxcOASxkk4-8" value="&lt;font style=&quot;font-size: 10px;&quot;&gt;Konfirmasi Pembayaran&lt;/font&gt;" style="ellipse;whiteSpace=wrap;html=1;" parent="1" vertex="1">
          <mxGeometry x="1470" y="380" width="120" height="40" as="geometry" />
        </mxCell>
        <mxCell id="gzXm-2DNW7AxcOASxkk4-9" value="&amp;lt;&amp;lt;include&amp;gt;&amp;gt;" style="text;html=1;align=center;verticalAlign=middle;resizable=0;points=[];autosize=1;strokeColor=none;fillColor=none;" parent="1" vertex="1">
          <mxGeometry x="1030" y="330" width="90" height="30" as="geometry" />
        </mxCell>
        <mxCell id="gzXm-2DNW7AxcOASxkk4-11" value="&amp;lt;&amp;lt;include&amp;gt;&amp;gt;" style="text;html=1;align=center;verticalAlign=middle;resizable=0;points=[];autosize=1;strokeColor=none;fillColor=none;" parent="1" vertex="1">
          <mxGeometry x="1210" y="330" width="90" height="30" as="geometry" />
        </mxCell>
        <mxCell id="gzXm-2DNW7AxcOASxkk4-12" value="" style="endArrow=classic;html=1;rounded=0;entryX=0;entryY=0.5;entryDx=0;entryDy=0;exitX=1;exitY=0.5;exitDx=0;exitDy=0;dashed=1;" parent="1" source="gzXm-2DNW7AxcOASxkk4-6" target="gzXm-2DNW7AxcOASxkk4-2" edge="1">
          <mxGeometry width="50" height="50" relative="1" as="geometry">
            <mxPoint x="1270" y="360" as="sourcePoint" />
            <mxPoint x="1320" y="310" as="targetPoint" />
          </mxGeometry>
        </mxCell>
        <mxCell id="gzXm-2DNW7AxcOASxkk4-13" value="" style="endArrow=classic;html=1;rounded=0;entryX=0;entryY=0.5;entryDx=0;entryDy=0;exitX=1;exitY=0.5;exitDx=0;exitDy=0;dashed=1;" parent="1" source="gzXm-2DNW7AxcOASxkk4-2" target="gzXm-2DNW7AxcOASxkk4-7" edge="1">
          <mxGeometry width="50" height="50" relative="1" as="geometry">
            <mxPoint x="1450" y="360" as="sourcePoint" />
            <mxPoint x="1510" y="360" as="targetPoint" />
          </mxGeometry>
        </mxCell>
        <mxCell id="gzXm-2DNW7AxcOASxkk4-14" value="" style="endArrow=classic;html=1;rounded=0;entryX=0;entryY=0.5;entryDx=0;entryDy=0;exitX=1;exitY=0.5;exitDx=0;exitDy=0;dashed=1;" parent="1" source="gzXm-2DNW7AxcOASxkk4-2" target="gzXm-2DNW7AxcOASxkk4-8" edge="1">
          <mxGeometry width="50" height="50" relative="1" as="geometry">
            <mxPoint x="1460" y="370" as="sourcePoint" />
            <mxPoint x="1510" y="340" as="targetPoint" />
          </mxGeometry>
        </mxCell>
        <mxCell id="gzXm-2DNW7AxcOASxkk4-15" value="&amp;lt;&amp;lt;include&amp;gt;&amp;gt;" style="text;html=1;align=center;verticalAlign=middle;resizable=0;points=[];autosize=1;strokeColor=none;fillColor=none;" parent="1" vertex="1">
          <mxGeometry x="1370" y="320" width="90" height="30" as="geometry" />
        </mxCell>
        <mxCell id="gzXm-2DNW7AxcOASxkk4-16" value="&amp;lt;&amp;lt;include&amp;gt;&amp;gt;" style="text;html=1;align=center;verticalAlign=middle;resizable=0;points=[];autosize=1;strokeColor=none;fillColor=none;" parent="1" vertex="1">
          <mxGeometry x="1410" y="345" width="90" height="30" as="geometry" />
        </mxCell>
        <mxCell id="gzXm-2DNW7AxcOASxkk4-18" value="Pegawai" style="shape=umlActor;verticalLabelPosition=bottom;verticalAlign=top;html=1;outlineConnect=0;" parent="1" vertex="1">
          <mxGeometry x="860" y="340" width="30" height="60" as="geometry" />
        </mxCell>
        <mxCell id="gzXm-2DNW7AxcOASxkk4-19" value="" style="endArrow=classic;html=1;rounded=0;entryX=0;entryY=0.5;entryDx=0;entryDy=0;" parent="1" target="gzXm-2DNW7AxcOASxkk4-4" edge="1">
          <mxGeometry width="50" height="50" relative="1" as="geometry">
            <mxPoint x="890" y="360" as="sourcePoint" />
            <mxPoint x="940" y="310" as="targetPoint" />
          </mxGeometry>
        </mxCell>
      </root>
    </mxGraphModel>
  </diagram>
</mxfile>
